<?xml version="1.0" encoding="UTF-8"?>
<!DOCTYPE svg PUBLIC "-//W3C//DTD SVG 1.1//EN" "http://www.w3.org/Graphics/SVG/1.1/DTD/svg11.dtd">
<!-- Creator: CorelDRAW X7 -->
<svg xmlns="http://www.w3.org/2000/svg" xml:space="preserve" width="121.656mm" height="34.7586mm" version="1.1" style="shape-rendering:geometricPrecision; text-rendering:geometricPrecision; image-rendering:optimizeQuality; fill-rule:evenodd; clip-rule:evenodd"
viewBox="0 0 3898 1114"
 xmlns:xlink="http://www.w3.org/1999/xlink">
 <defs>
  <style type="text/css">
   <![CDATA[
    .fil12 {fill:none}
    .fil0 {fill:black}
    .fil11 {fill:#2B2A29;fill-rule:nonzero}
    .fil3 {fill:black;fill-rule:nonzero}
    .fil2 {fill:url(#id0)}
    .fil1 {fill:url(#id1)}
    .fil8 {fill:url(#id2);fill-rule:nonzero}
    .fil6 {fill:url(#id3);fill-rule:nonzero}
    .fil9 {fill:url(#id4);fill-rule:nonzero}
    .fil10 {fill:url(#id5);fill-rule:nonzero}
    .fil5 {fill:url(#id6);fill-rule:nonzero}
    .fil4 {fill:url(#id7);fill-rule:nonzero}
    .fil7 {fill:url(#id8);fill-rule:nonzero}
   ]]>
  </style>
  <linearGradient id="id0" gradientUnits="userSpaceOnUse" x1="304.66" y1="726.778" x2="479.804" y2="479.128">
   <stop offset="0" style="stop-opacity:1; stop-color:#FF6600"/>
   <stop offset="1" style="stop-opacity:1; stop-color:red"/>
  </linearGradient>
  <linearGradient id="id1" gradientUnits="userSpaceOnUse" xlink:href="#id0" x1="264.813" y1="790.79" x2="530.489" y2="415.117">
  </linearGradient>
  <linearGradient id="id2" gradientUnits="userSpaceOnUse" xlink:href="#id0" x1="1757.28" y1="680.375" x2="2084.63" y2="627.714">
  </linearGradient>
  <linearGradient id="id3" gradientUnits="userSpaceOnUse" xlink:href="#id0" x1="1475.02" y1="606.642" x2="1583.37" y2="602.393">
  </linearGradient>
  <linearGradient id="id4" gradientUnits="userSpaceOnUse" xlink:href="#id0" x1="2072.64" y1="723.83" x2="2419.57" y2="680.334">
  </linearGradient>
  <linearGradient id="id5" gradientUnits="userSpaceOnUse" xlink:href="#id0" x1="2424.42" y1="680.375" x2="2751.76" y2="627.714">
  </linearGradient>
  <linearGradient id="id6" gradientUnits="userSpaceOnUse" xlink:href="#id0" x1="1117.01" y1="682.509" x2="1457" y2="625.58">
  </linearGradient>
  <linearGradient id="id7" gradientUnits="userSpaceOnUse" xlink:href="#id0" x1="759.803" y1="642.624" x2="1143.6" y2="587.213">
  </linearGradient>
  <linearGradient id="id8" gradientUnits="userSpaceOnUse" xlink:href="#id0" x1="1630.05" y1="606.642" x2="1738.39" y2="602.393">
  </linearGradient>
 </defs>
 <g id="Layer_x0020_1">
  <metadata id="CorelCorpID_0Corel-Layer"/>
  <g id="_1415918068896">
   <g>
    <path class="fil0" d="M499 231c-74,1 -168,-4 -245,-6 -25,0 -19,-2 -32,12 -45,48 -173,186 -188,218l65 1c-7,24 -3,55 6,90 0,1 -1,1 -1,1 0,0 -1,1 -1,1l-4 3 12 57c50,-2 40,-15 30,-57l-9 -1c-14,-59 -32,-98 9,-145 30,-34 79,-59 124,-51 -52,9 -126,39 -139,103l50 1 11 34c32,-60 89,-106 161,-120 25,-5 50,-6 74,-3 -7,-7 -17,-15 -21,-20l98 -118z"/>
    <path class="fil1" d="M399 372c94,0 175,56 211,137l-32 16c-30,-70 -99,-118 -179,-118 -70,0 -132,37 -166,92l43 18 -16 31 -4 -1c-24,-11 -47,-21 -70,-33 34,-83 117,-142 213,-142zm148 359l-58 -24 25 -28c32,14 56,24 85,38 -39,70 -114,117 -200,117 -94,0 -175,-56 -211,-137l32 -13c31,68 100,115 179,115 59,0 112,-26 148,-68z"/>
    <path class="fil2" d="M399 453c48,0 91,23 118,58l1 0 2 4c6,8 11,17 15,26 -8,5 -20,11 -28,16 -1,0 -1,-1 -1,-1l-98 50 -93 -37 16 -31 77 31 80 -42c-22,-25 -54,-41 -89,-41 -65,0 -117,52 -117,117 0,65 52,117 117,117 39,0 73,-19 94,-48l32 12c-27,41 -73,69 -126,69 -83,0 -150,-67 -150,-150 0,-83 67,-150 150,-150z"/>
    <path class="fil3" d="M2964 515c33,0 60,10 80,30 21,20 31,50 31,90l0 153 -94 0 0 -138c0,-37 -15,-55 -44,-55 -16,0 -29,5 -39,16 -10,11 -15,26 -15,47l0 130 -94 0 0 -268 90 0 0 29c10,-11 23,-19 37,-25 15,-6 31,-9 48,-9z"/>
    <path id="1" class="fil3" d="M3319 777c-8,5 -18,9 -29,12 -11,2 -23,4 -36,4 -35,0 -62,-9 -81,-26 -19,-17 -28,-43 -28,-77l0 -90 -39 0 0 -70 39 0 0 -70 94 0 0 70 61 0 0 70 -61 0 0 89c0,10 2,17 7,23 6,5 12,8 21,8 11,0 21,-3 29,-9l23 66z"/>
    <path id="2" class="fil3" d="M3445 552c9,-12 22,-21 37,-27 16,-7 33,-10 53,-10l0 85c-9,-1 -16,-1 -21,-1 -20,0 -36,5 -48,16 -11,11 -17,27 -17,50l0 123 -94 0 0 -268 90 0 0 32z"/>
    <path id="3" class="fil3" d="M3865 520l-116 279c-14,33 -30,56 -50,70 -19,13 -43,20 -71,20 -14,0 -28,-2 -43,-7 -14,-4 -26,-10 -35,-17l33 -66c5,5 12,8 19,11 8,3 15,5 23,5 9,0 16,-2 22,-6 5,-4 10,-9 14,-17l-115 -272 97 0 66 164 66 -164 90 0z"/>
    <path class="fil4" d="M972 795c-36,0 -68,-7 -97,-23 -29,-15 -52,-37 -68,-64 -17,-27 -25,-58 -25,-93 0,-35 8,-66 25,-93 16,-28 39,-49 68,-64 29,-16 61,-23 97,-23 32,0 61,5 86,16 26,12 47,28 64,49l-63 56c-22,-27 -50,-40 -82,-40 -18,0 -35,4 -50,12 -15,9 -26,20 -34,35 -8,15 -12,32 -12,52 0,19 4,37 12,52 8,15 19,26 34,35 15,8 32,12 50,12 32,0 60,-14 82,-41l63 57c-17,21 -38,37 -64,48 -25,12 -54,17 -86,17z"/>
    <path class="fil5" d="M1287 793c-29,0 -55,-6 -78,-18 -23,-12 -41,-29 -54,-50 -13,-21 -20,-45 -20,-71 0,-27 7,-51 20,-72 13,-21 31,-37 54,-49 23,-12 49,-18 78,-18 29,0 55,6 78,18 23,12 41,28 54,49 13,21 20,45 20,72 0,26 -7,50 -20,71 -13,21 -31,38 -54,50 -23,12 -49,18 -78,18zm0 -75c17,0 30,-6 41,-17 10,-12 15,-27 15,-47 0,-20 -5,-36 -15,-47 -11,-11 -24,-17 -41,-17 -17,0 -30,6 -41,17 -10,11 -15,27 -15,47 0,20 5,35 15,47 11,11 24,17 41,17z"/>
    <polygon class="fil6" points="1482,421 1576,421 1576,788 1482,788 "/>
    <polygon class="fil7" points="1637,421 1731,421 1731,788 1637,788 "/>
    <path class="fil8" d="M2067 655c0,0 -1,8 -2,23l-195 0c4,14 12,24 23,32 11,7 26,11 43,11 13,0 24,-2 33,-6 10,-3 19,-9 29,-17l49 51c-26,29 -64,44 -114,44 -32,0 -59,-6 -83,-18 -24,-12 -42,-29 -55,-50 -13,-21 -20,-45 -20,-71 0,-27 7,-51 19,-72 13,-20 31,-37 53,-49 23,-12 48,-18 76,-18 27,0 51,6 73,17 22,11 39,27 51,48 13,21 20,46 20,75zm-144 -73c-14,0 -26,4 -36,13 -10,8 -16,19 -19,33l110 0c-2,-14 -8,-25 -18,-33 -10,-9 -22,-13 -37,-13z"/>
    <path class="fil9" d="M2399 520l0 219c0,50 -14,87 -41,112 -27,25 -66,38 -117,38 -26,0 -51,-3 -74,-9 -23,-6 -43,-15 -59,-26l34 -66c11,9 25,16 42,21 16,5 33,7 49,7 25,0 43,-5 54,-16 12,-11 18,-27 18,-48l0 -9c-18,21 -45,31 -80,31 -24,0 -46,-5 -66,-16 -20,-10 -36,-26 -48,-45 -12,-20 -18,-43 -18,-68 0,-26 6,-48 18,-68 12,-20 28,-35 48,-46 20,-10 42,-16 66,-16 38,0 66,13 84,38l0 -33 90 0zm-152 180c17,0 31,-6 42,-16 11,-10 17,-23 17,-39 0,-17 -6,-30 -17,-40 -10,-10 -24,-15 -42,-15 -17,0 -31,5 -42,15 -11,10 -17,23 -17,40 0,16 6,29 17,39 11,10 26,16 42,16z"/>
    <path class="fil10" d="M2734 655c0,0 -1,8 -2,23l-195 0c4,14 12,24 23,32 12,7 26,11 43,11 13,0 24,-2 33,-6 10,-3 19,-9 29,-17l49 51c-26,29 -64,44 -114,44 -31,0 -59,-6 -83,-18 -23,-12 -42,-29 -55,-50 -13,-21 -20,-45 -20,-71 0,-27 7,-51 20,-72 12,-20 30,-37 52,-49 23,-12 48,-18 76,-18 27,0 51,6 73,17 22,11 39,27 52,48 12,21 19,46 19,75zm-143 -73c-15,0 -27,4 -37,13 -10,8 -16,19 -18,33l110 0c-3,-14 -9,-25 -19,-33 -10,-9 -22,-13 -36,-13z"/>
    <path class="fil11" d="M2459 490l0 -58c20,-22 46,-34 78,-34 12,0 24,2 36,5 12,4 30,10 53,20 13,6 23,9 29,11 7,2 13,3 20,3 12,0 25,-4 38,-11 13,-8 25,-17 35,-28l0 60c-12,11 -25,19 -37,24 -12,5 -26,8 -41,8 -12,0 -23,-2 -33,-4 -10,-3 -26,-9 -49,-19 -22,-10 -40,-15 -55,-15 -12,0 -24,2 -34,7 -11,5 -24,16 -40,31z"/>
   </g>
   <rect class="fil12" width="3898" height="1114"/>
  </g>
 </g>
</svg>
